<?xml version="1.0" encoding="utf-8"?>
<!-- Generator: Adobe Illustrator 21.1.0, SVG Export Plug-In . SVG Version: 6.00 Build 0)  -->
<svg version="1.1" id="レイヤー_1" xmlns="http://www.w3.org/2000/svg" xmlns:xlink="http://www.w3.org/1999/xlink" x="0px"
	 y="0px" viewBox="0 0 232.1 75.5" style="enable-background:new 0 0 232.1 75.5;" xml:space="preserve">
<style type="text/css">
	.st0{enable-background:new    ;}
</style>
<g class="st0">
	<path d="M34.5,15.7v53h-7v-4.2H8.8v4.3H2V15.7H34.5z M27.5,53.5V26.7H8.7v26.9H27.5z"/>
	<path d="M73.4,17.3v54.1h-7.1v-3.9H41.4V56.3h24.9V28.5H41.8V17.3H73.4z M66.7,2.6c1.8,2.6,4.1,7.2,5.4,9.9l-3,4.4
		c-1-2.7-3.7-7.8-5.2-10.1L66.7,2.6z M74.2,1.4c1.9,2.5,4.1,6.6,5.4,9.7l-3,4.4c-1.1-2.6-3.6-7.6-5.2-9.9L74.2,1.4z"/>
	<path d="M93.7,73.1h-5.1L99.8,8.5h5.1L93.7,73.1z"/>
	<path d="M136.2,69.6h-19.3V9.4h7.9V58h11.4V69.6z"/>
	<path d="M167.5,38.6c0,20.9-5.8,31.8-14.5,31.8c-9.5,0-14.1-14.3-14.1-30.8c0-17,5.4-31.1,14.6-31.1C163.5,8.5,167.5,24,167.5,38.6
		z M147.1,39.3c0,11.5,2.2,19.8,6.2,19.8s6-8.3,6-20c0-10.5-2-19.3-6-19.3C149.1,19.8,147.1,29,147.1,39.3z"/>
	<path d="M197.2,67.2c-2.1,1.3-6.1,2.9-9.8,2.9c-5.4,0-9.4-2.5-12.1-7.2c-3.1-5.2-4.7-13.5-4.7-23c0-20.8,8.1-31.1,17.8-31.1
		c3.6,0,6.5,1.2,8,2.4l-1.5,11.4c-1.5-1.2-3.4-2-6.3-2c-5.5,0-9.7,5.7-9.7,19.4c0,12.8,3.8,18.9,8.5,18.9c1.1,0,2-0.2,2.5-0.5V45.7
		h-4.1V34.9h11.5V67.2z"/>
	<path d="M229.8,38.6c0,20.9-5.8,31.8-14.5,31.8c-9.5,0-14.1-14.3-14.1-30.8c0-17,5.4-31.1,14.6-31.1C225.8,8.5,229.8,24,229.8,38.6
		z M209.4,39.3c0,11.5,2.2,19.8,6.2,19.8s6-8.3,6-20c0-10.5-2-19.3-6-19.3C211.3,19.8,209.4,29,209.4,39.3z"/>
</g>
</svg>
